<svg width="50" height="50" viewBox="0 0 50 50" fill="none" xmlns="http://www.w3.org/2000/svg">
<path d="M44.9556 33.5207L42.6849 17.5623C42.1016 13.4582 38.581 10.4165 34.4354 10.4165H15.5614C11.4158 10.4165 7.8952 13.4582 7.3119 17.5623L5.04119 33.5207C4.58288 36.729 7.06191 39.5832 10.2909 39.5832C11.7075 39.5832 13.0407 39.0207 14.0407 38.0207L18.7487 33.3332H31.248L35.9353 38.0207C36.9352 39.0207 38.2893 39.5832 39.6851 39.5832C42.9349 39.5832 45.4139 36.729 44.9556 33.5207ZM22.9152 22.9165H18.7487V27.0832H16.6655V22.9165H12.4991V20.8332H16.6655V16.6665H18.7487V20.8332H22.9152V22.9165ZM31.248 20.8332C30.1023 20.8332 29.1648 19.8957 29.1648 18.7498C29.1648 17.604 30.1023 16.6665 31.248 16.6665C32.3938 16.6665 33.3313 17.604 33.3313 18.7498C33.3313 19.8957 32.3938 20.8332 31.248 20.8332ZM35.4145 27.0832C34.2687 27.0832 33.3313 26.1457 33.3313 24.9998C33.3313 23.854 34.2687 22.9165 35.4145 22.9165C36.5602 22.9165 37.4977 23.854 37.4977 24.9998C37.4977 26.1457 36.5602 27.0832 35.4145 27.0832Z" fill="#2A7AE4"/>
</svg>
